<svg width="24" height="25" viewBox="0 0 24 25" fill="none" xmlns="http://www.w3.org/2000/svg">
<path d="M19.3903 12.5358H18.0937C18.0688 12.5358 18.045 12.526 18.0274 12.5084C18.0098 12.4908 17.9999 12.4669 17.9999 12.4421V8.82145C17.9999 8.33834 17.808 7.87502 17.4664 7.53341C17.1248 7.1918 16.6615 6.99989 16.1784 6.99989H12.5578C12.5329 6.99989 12.509 6.99001 12.4915 6.97243C12.4739 6.95485 12.464 6.931 12.464 6.90614V5.60958C12.464 4.33739 11.4562 3.27239 10.184 3.25036C9.87577 3.24494 9.56955 3.30097 9.28321 3.41516C8.99686 3.52935 8.73612 3.69942 8.51621 3.91546C8.29629 4.13149 8.1216 4.38916 8.00232 4.67342C7.88305 4.95769 7.82158 5.26286 7.8215 5.57114V6.90614C7.8215 6.931 7.81162 6.95485 7.79404 6.97243C7.77646 6.99001 7.75262 6.99989 7.72775 6.99989H4.10713C3.61503 7.00137 3.1435 7.19752 2.79554 7.54549C2.44757 7.89346 2.25142 8.36498 2.24994 8.85708V12.1561C2.24994 12.181 2.25982 12.2049 2.2774 12.2224C2.29498 12.24 2.31882 12.2499 2.34369 12.2499H3.6051C4.98181 12.2499 6.12135 13.4443 6.14056 14.821C6.16025 16.2211 5.03853 17.4999 3.6426 17.4999H2.34369C2.31882 17.4999 2.29498 17.5098 2.2774 17.5274C2.25982 17.5449 2.24994 17.5688 2.24994 17.5936V20.8927C2.25142 21.3848 2.44757 21.8563 2.79554 22.2043C3.1435 22.5523 3.61503 22.7484 4.10713 22.7499H7.40619C7.43105 22.7499 7.4549 22.74 7.47248 22.7224C7.49006 22.7049 7.49994 22.681 7.49994 22.6561V21.6751C7.49994 20.2557 8.6601 19.0336 10.0781 19.0004C11.489 18.9676 12.7499 19.9524 12.7499 21.3572V22.6561C12.7499 22.681 12.7598 22.7049 12.7774 22.7224C12.795 22.74 12.8188 22.7499 12.8437 22.7499H16.1784C16.6615 22.7499 17.1248 22.558 17.4664 22.2164C17.808 21.8748 17.9999 21.4114 17.9999 20.9283V17.2721C17.9999 17.2472 18.0098 17.2234 18.0274 17.2058C18.045 17.1882 18.0688 17.1783 18.0937 17.1783H19.4287C20.7238 17.1783 21.7499 16.1157 21.7499 14.8158C21.7499 13.516 20.6624 12.5358 19.3903 12.5358V12.5358Z" stroke="#666666" stroke-width="1.5" stroke-linecap="round" stroke-linejoin="round"/>
</svg>
