<svg width="24" height="25" viewBox="0 0 24 25" fill="none" xmlns="http://www.w3.org/2000/svg">
<path d="M6.23451 21.6212C5.94671 21.6206 5.66401 21.5452 5.4142 21.4023C4.8517 21.0835 4.50201 20.4648 4.50201 19.7931V6.1993C4.50201 5.52571 4.8517 4.90883 5.4142 4.59008C5.66995 4.4431 5.96049 4.36751 6.25545 4.37122C6.5504 4.37493 6.83895 4.45781 7.09092 4.61118L18.7089 11.5656C18.951 11.7174 19.1506 11.9282 19.289 12.1783C19.4273 12.4283 19.4999 12.7094 19.4999 12.9952C19.4999 13.281 19.4273 13.5621 19.289 13.8122C19.1506 14.0623 18.951 14.2731 18.7089 14.4249L7.08905 21.3812C6.83118 21.5371 6.53583 21.62 6.23451 21.6212Z" fill="#666666"/>
</svg>
