<svg width="24" height="25" viewBox="0 0 24 25" fill="none" xmlns="http://www.w3.org/2000/svg">
<path d="M12 3.25C6.62391 3.25 2.25 7.62391 2.25 13C2.25 18.3761 6.62391 22.75 12 22.75C17.3761 22.75 21.75 18.3761 21.75 13C21.75 7.62391 17.3761 3.25 12 3.25ZM15.5048 13.4359L10.14 16.6769C10.0631 16.7229 9.97533 16.7477 9.8857 16.7487C9.79606 16.7496 9.70778 16.7267 9.62992 16.6823C9.55205 16.6379 9.48741 16.5736 9.44261 16.4959C9.39782 16.4183 9.37448 16.3301 9.375 16.2405V9.75953C9.37448 9.66989 9.39782 9.58173 9.44261 9.50408C9.48741 9.42643 9.55205 9.3621 9.62992 9.31768C9.70778 9.27326 9.79606 9.25036 9.8857 9.25131C9.97533 9.25227 10.0631 9.27706 10.14 9.32313L15.5048 12.5641C15.5796 12.6096 15.6414 12.6737 15.6843 12.75C15.7272 12.8263 15.7497 12.9124 15.7497 13C15.7497 13.0876 15.7272 13.1737 15.6843 13.25C15.6414 13.3264 15.5796 13.3904 15.5048 13.4359Z" fill="#666666"/>
</svg>
