<svg width="24" height="25" viewBox="0 0 24 25" fill="none" xmlns="http://www.w3.org/2000/svg">
<path d="M1.43954 11.753L10.2928 6.4561C10.5119 6.32283 10.7626 6.25083 11.019 6.24761C11.2754 6.2444 11.5279 6.31009 11.7502 6.43782C11.9914 6.57827 12.1911 6.78006 12.3291 7.02268C12.4671 7.2653 12.5384 7.54012 12.5358 7.81922V11.5247L21.007 6.45469C21.2261 6.32142 21.4769 6.24942 21.7332 6.24621C21.9896 6.24299 22.2421 6.30868 22.4644 6.43641C22.7056 6.57686 22.9053 6.77865 23.0433 7.02127C23.1813 7.2639 23.2526 7.53871 23.25 7.81782V18.1772C23.2527 18.4564 23.1815 18.7313 23.0435 18.974C22.9055 19.2168 22.7057 19.4186 22.4644 19.5591C22.2421 19.6868 21.9896 19.7525 21.7332 19.7493C21.4769 19.7461 21.2261 19.6741 21.007 19.5408L12.5358 14.4684V18.1753C12.5389 18.4548 12.4678 18.7301 12.3297 18.9732C12.1917 19.2163 11.9918 19.4185 11.7502 19.5591C11.5279 19.6868 11.2754 19.7525 11.019 19.7493C10.7626 19.7461 10.5119 19.6741 10.2928 19.5408L1.43954 14.2439C1.22908 14.1121 1.05556 13.9289 0.935277 13.7116C0.814995 13.4944 0.751892 13.2501 0.751892 13.0017C0.751892 12.7534 0.814995 12.5091 0.935277 12.2918C1.05556 12.0745 1.22908 11.8914 1.43954 11.7595V11.753Z" fill="#666666"/>
</svg>
